<svg width="16" height="19" viewBox="0 0 16 19" fill="none" xmlns="http://www.w3.org/2000/svg">
<path d="M12.8722 1.87683H12.4675V2.70853C12.4675 3.31192 11.9803 3.80095 11.4125 3.80095C10.8448 3.80095 10.3576 3.31192 10.3576 2.70853V1.87683H3.83614V2.70853C3.83614 3.31192 3.34895 3.80095 2.7812 3.80095C2.21537 3.80095 1.72626 3.31192 1.72626 2.70853V1.87683H1.3369C0.59652 1.87683 0 2.44332 0 3.23058V17.4385C0 18.2254 0.59652 19 1.3369 19H5.82326C6.13207 18.3885 6.51569 17.9808 6.95109 17.3692H2.1866C1.89122 17.3692 1.72626 17.0757 1.72626 16.7903V5.08661C1.72626 4.80122 1.89122 4.73069 2.1866 4.73069H12.0225C12.3198 4.73069 12.4675 4.80122 12.4675 5.08661V9.35191L14.1937 6.88944V3.23058C14.1937 2.44332 13.6145 1.87683 12.8722 1.87683Z" fill="#999999"/>
<path d="M2.34381 0.522658V1.80587V2.70852C2.34381 2.99676 2.5642 3.23118 2.8356 3.23118C3.10682 3.23118 3.3272 2.99676 3.3272 2.70852V1.80587V0.522658C3.3272 0.23401 3.10663 0 2.8356 0C2.5642 0 2.34381 0.23401 2.34381 0.522658Z" fill="#999999"/>
<path d="M10.8828 0.522658V1.80587V2.70852C10.8828 2.99676 11.1036 3.23118 11.3748 3.23118C11.6462 3.23118 11.8664 2.99676 11.8664 2.70852V1.80587V0.522658C11.8664 0.23401 11.646 0 11.3748 0C11.1036 0 10.8828 0.23401 10.8828 0.522658Z" fill="#999999"/>
<path d="M11.6666 5.71973H2.59106V7.14829H11.6666V5.71973Z" fill="#999999"/>
<path d="M11.6666 8.78015H2.59106V10.2087H11.6666V8.78015Z" fill="#999999"/>
<path d="M9.77808 13.2693L10.7571 11.8407H2.59106V13.2693H9.77808Z" fill="#999999"/>
<path d="M7.66033 16.3296L8.64334 14.9012H2.59106V16.3296H7.66033Z" fill="#999999"/>
<path d="M8.20081 19L8.81708 16.9561L9.95641 17.9469L8.20081 19Z" fill="#999999"/>
<path d="M9.0376 16.5345C9.0376 16.5345 12.9303 10.8953 13.814 9.65955L15.4775 11.0822C15.4775 11.0822 10.9597 16.8229 10.2542 17.6349L9.0376 16.5345Z" fill="#999999"/>
<path d="M15.7367 10.7061L14.0648 9.32154C14.0648 9.32154 14.6081 8.34307 15.5733 9.19271C16.4263 9.94389 15.7367 10.7061 15.7367 10.7061Z" fill="#999999"/>
</svg>
