<svg width="12" height="15" viewBox="0 0 12 15" fill="none" xmlns="http://www.w3.org/2000/svg">
<path d="M0.0256348 3.25362H0.0291377L0.635167 3.76165V13.402C0.635167 13.8743 1.01753 14.257 1.49032 14.257H9.61968C10.0919 14.257 10.4747 13.8743 10.4747 13.402V3.76165L11.0809 3.25362H11.0846V2.40714H0.0256348V3.25362ZM7.48567 4.58932H8.51743V12.8816H7.48567V4.58932ZM5.03903 4.58932H6.07043V12.8816H5.03903V4.58932ZM2.59221 4.58932H3.6238V12.8816H2.59221V4.58932Z" fill="#DC4E4E"/>
<path d="M10.9012 1.19029H7.30041V0.34804C7.30041 0.155749 7.14466 0 6.95237 0H4.15677C3.96466 0 3.80891 0.155749 3.80891 0.34804V1.19029H0.208351C0.093198 1.19029 0 1.28348 0 1.39827V2.06334H11.1093V1.39827C11.1093 1.28348 11.0163 1.19029 10.9012 1.19029ZM6.66578 0.978804H4.44391V0.745729C4.44391 0.684647 4.49355 0.634818 4.55482 0.634818H6.55487C6.61614 0.634818 6.66596 0.684647 6.66596 0.745729V0.978804H6.66578Z" fill="#DC4E4E"/>
</svg>
