<svg width="12" height="15" viewBox="0 0 12 15" fill="none" xmlns="http://www.w3.org/2000/svg">
<path d="M0.0275879 3.42319H0.0313717L0.685989 3.9577V14.1005C0.685989 14.5973 1.09901 15 1.6097 15H10.3908C10.9009 15 11.3144 14.5973 11.3144 14.1005V3.9577L11.9692 3.42319H11.9732V2.53259H0.0275879V3.42319ZM8.08572 4.8285H9.20021V13.553H8.08572V4.8285ZM5.44293 4.8285H6.55702V13.553H5.44293V4.8285ZM2.79994 4.8285H3.91423V13.553H2.79994V4.8285Z" fill="#DC4E4E" fill-opacity="0.5"/>
<path d="M11.7752 1.25232H7.88571V0.366178C7.88571 0.163866 7.71748 0 7.50977 0H4.49004C4.28253 0 4.11429 0.163866 4.11429 0.366178V1.25232H0.225055C0.10067 1.25232 0 1.35037 0 1.47113V2.17086H12V1.47113C12 1.35037 11.8995 1.25232 11.7752 1.25232ZM7.2002 1.02981H4.8002V0.784592C4.8002 0.720326 4.85382 0.667901 4.92 0.667901H7.0804C7.14658 0.667901 7.2004 0.720326 7.2004 0.784592V1.02981H7.2002Z" fill="#DC4E4E" fill-opacity="0.5"/>
</svg>
