<svg width="16" height="19" viewBox="0 0 16 19" fill="none" xmlns="http://www.w3.org/2000/svg">
<path d="M0.991943 4.16648H0.996429L1.77249 4.81705V17.1622C1.77249 17.7669 2.26213 18.257 2.86757 18.257H13.2777C13.8825 18.257 14.3726 17.7669 14.3726 17.1622V4.81705L15.1489 4.16648H15.1536V3.0825H0.991943V4.16648ZM10.545 5.87694H11.8662V16.4958H10.545V5.87694ZM7.41192 5.87694H8.73268V16.4958H7.41192V5.87694ZM4.27861 5.87694H5.59962V16.4958H4.27861V5.87694Z" fill="#0A3CBB"/>
<path d="M14.9189 1.52424H10.3079V0.445688C10.3079 0.199447 10.1084 0 9.86217 0H6.28224C6.03623 0 5.83678 0.199447 5.83678 0.445688V1.52424H1.22604C1.07857 1.52424 0.959229 1.64358 0.959229 1.79057V2.64223H15.1854V1.79057C15.1854 1.64358 15.0663 1.52424 14.9189 1.52424ZM9.49518 1.25342H6.64994V0.954954C6.64994 0.876734 6.71351 0.812925 6.79197 0.812925H9.35315C9.43161 0.812925 9.49541 0.876734 9.49541 0.954954V1.25342H9.49518Z" fill="#0A3CBB"/>
</svg>
