<svg width="10" height="12" viewBox="0 0 10 12" fill="none" xmlns="http://www.w3.org/2000/svg">
<path d="M0.697252 0.000188564C0.313003 0.000188564 0 0.312805 0 0.69744V11.0028C0 11.3873 0.313003 11.7003 0.697252 11.7003H6.92072V10.3309C6.92072 9.7269 7.41194 9.23568 8.01592 9.23568H9.53459V0.69724C9.53459 0.312605 9.22178 0 8.83733 0H0.697252V0.000188564ZM7.71703 6.38413H1.81717V5.9043H7.71703V6.38413ZM7.71703 4.70482H1.81717V4.22499H7.71703V4.70482ZM7.71703 3.02532H1.81717V2.54569H7.71703V3.02532Z" fill="#999999"/>
<path d="M7.416 10.3311V11.4381L9.32972 9.63345H8.11324C7.7288 9.63365 7.416 9.94664 7.416 10.3311Z" fill="#999999"/>
</svg>
