<svg width="8" height="4" viewBox="0 0 8 4" fill="none" xmlns="http://www.w3.org/2000/svg">
<path fill-rule="evenodd" clip-rule="evenodd" d="M4.36817 3.86873C5.1958 3.1931 6.91417 1.78774 7.7408 1.11129C8.083 0.831278 8.08626 0.426809 7.75121 0.171368C7.4459 -0.0614272 6.9853 -0.0571154 6.68645 0.184755C6.10563 0.654791 4.02607 2.36467 4.00024 2.3965H3.99975C3.97392 2.36467 1.89436 0.654791 1.31355 0.184755C1.01468 -0.0571154 0.554106 -0.061415 0.248778 0.171368C-0.0862575 0.426809 -0.0829987 0.831278 0.259198 1.11129C1.08583 1.78774 2.8042 3.1931 3.63183 3.86873C3.63183 3.86873 3.78977 3.99846 3.99315 3.99999C4.19801 4.00153 4.36817 3.86873 4.36817 3.86873Z" fill="#999999"/>
</svg>
