<svg width="8" height="4" viewBox="0 0 8 4" fill="none" xmlns="http://www.w3.org/2000/svg">
<path fill-rule="evenodd" clip-rule="evenodd" d="M3.63183 0.13127C2.8042 0.8069 1.08583 2.21226 0.259196 2.88871C-0.0830001 3.16872 -0.0862589 3.57319 0.24879 3.82863C0.554104 4.06143 1.0147 4.05711 1.31355 3.81524C1.89437 3.34521 3.97393 1.63533 3.99976 1.6035L4.00025 1.6035C4.02608 1.63533 6.10564 3.34521 6.68645 3.81524C6.98532 4.05712 7.44589 4.06141 7.75122 3.82863C8.08626 3.57319 8.083 3.16872 7.7408 2.88871C6.91417 2.21226 5.1958 0.8069 4.36817 0.13127C4.36817 0.13127 4.21023 0.00153985 4.00685 1.30023e-05C3.80199 -0.00152577 3.63183 0.13127 3.63183 0.13127Z" fill="#2F4B9F"/>
</svg>
