<svg width="16" height="21" viewBox="0 0 16 21" fill="none" xmlns="http://www.w3.org/2000/svg">
<path d="M12.779 6.3985C11.2538 6.3985 10 5.07697 10 3.44535V0H1.3535C0.7185 0 0 0.560848 0 1.24032V19.4416C0 20.1208 0.71875 20.6721 1.3535 20.6721H14.7943C15.4295 20.6721 16 20.1208 16 19.4416V6.3985H12.779ZM4 6.3985H9.75V7.38289H4V6.3985ZM13 16.2424H4V15.258H13V16.2424ZM13 13.2892H4V12.3048H13V13.2892ZM13 10.336H4V9.35166H13V10.336Z" fill="#999999"/>
<path d="M10.75 0.636963L15.4048 5.66028H12.9677C11.7202 5.66028 10.75 4.57769 10.75 3.24311V0.636963Z" fill="#999999"/>
</svg>
