<svg width="17" height="17" viewBox="0 0 25 25" fill="none" xmlns="http://www.w3.org/2000/svg">
<path d="M12.5 25C19.4036 25 25 19.4036 25 12.5C25 5.59644 19.4036 0 12.5 0C5.59644 0 0 5.59644 0 12.5C0 19.4036 5.59644 25 12.5 25Z" fill="#999999"/>
<path d="M15.7221 18.0211L15.0637 17.5462C15.063 17.5476 15.063 17.549 15.0623 17.5504C14.9667 17.8196 14.8552 18.0762 14.7268 18.3217C14.5978 18.5679 14.4423 18.7897 14.2602 18.9864C14.0775 19.1838 13.8732 19.3044 13.6465 19.3491C13.4763 19.3818 13.3585 19.3086 13.295 19.1294C13.2302 18.9501 13.1869 18.803 13.1646 18.6886C13.0593 18.1474 13.0691 17.5553 13.1939 16.9101C13.318 16.2657 13.4554 15.6108 13.6061 14.9462C13.7567 14.2822 13.8941 13.6273 14.0189 12.9822C14.1431 12.3371 14.1501 11.7303 14.0392 11.1605C13.9339 10.6193 13.6744 10.1165 13.2601 9.64989C12.8452 9.1847 12.3123 9.01453 11.6602 9.14146C11.3199 9.20772 10.9642 9.38696 10.5953 9.67918C10.2249 9.9721 9.85948 10.3236 9.49751 10.7316C9.40196 10.8397 9.30921 10.9485 9.21924 11.0573L9.84553 11.7233C10.0045 11.5601 10.1656 11.4402 10.3275 11.3649C10.4893 11.2895 10.6978 11.2268 10.953 11.1773C11.2083 11.127 11.2955 11.4269 11.216 12.0749C11.1358 12.7235 10.99 13.4871 10.7787 14.3666C10.5674 15.2468 10.3735 16.1381 10.1956 17.0406C10.0185 17.9437 9.97666 18.6356 10.0701 19.1175C10.1915 19.7417 10.5681 20.1685 11.202 20.398C11.8353 20.6281 12.4497 20.6853 13.0453 20.5696C13.952 20.3924 14.6229 19.9823 15.0567 19.3393C15.3211 18.948 15.5624 18.5226 15.7807 18.063L15.7221 18.0211Z" fill="white"/>
<path d="M12.7026 7.94717C12.2065 8.0437 11.7925 7.9651 11.4613 7.71059C11.1298 7.45674 10.9183 7.09335 10.8263 6.62051C10.7298 6.12442 10.7981 5.65775 11.0319 5.21978C11.2651 4.7825 11.6418 4.51265 12.1618 4.41149C12.634 4.31959 13.0642 4.38931 13.4527 4.62002C13.8408 4.85136 14.081 5.20284 14.1729 5.67512C14.2741 6.19502 14.1898 6.67744 13.9211 7.12164C13.652 7.56648 13.2458 7.84148 12.7026 7.94717Z" fill="white"/>
</svg>
