<svg width="25" height="25" viewBox="0 0 25 25" fill="none" xmlns="http://www.w3.org/2000/svg">
<path d="M5.0603 12.4996C5.0603 16.6014 8.3977 19.9395 12.5002 19.9395C16.6026 19.9395 19.94 16.6017 19.94 12.4996C19.94 8.39748 16.6026 5.05972 12.5002 5.05972C8.3977 5.05972 5.0603 8.39748 5.0603 12.4996ZM17.6838 12.0465C17.933 14.9111 15.8148 17.434 12.9523 17.6832C10.0894 17.9334 7.56537 15.8135 7.3169 12.9517C7.06667 10.0881 9.18519 7.5648 12.0481 7.31633C14.912 7.06645 17.4353 9.18497 17.6838 12.0465Z" fill="#999999"/>
<path d="M22.702 16.6124L23.9318 16.5647C24.2181 16.5524 24.5142 16.3176 24.5896 16.0408L24.994 14.0933C25.0354 13.8094 24.8584 13.4754 24.6008 13.3503L23.4926 12.8137C23.2347 12.689 23.0206 12.3522 23.0167 12.0655C23.0167 12.0655 23.015 11.9218 22.9859 11.5861C22.9768 11.4701 22.9768 11.4701 22.9768 11.4701C22.9606 11.3446 23.1457 11.1154 23.3879 10.9626L24.4315 10.3041C24.6737 10.1506 24.8125 9.79876 24.7396 9.52155L24.1228 7.63258C24.0169 7.36658 23.6966 7.16541 23.411 7.18644L22.1774 7.27547C21.8914 7.29614 21.5521 7.13983 21.4232 6.92815C21.2942 6.71543 21.0282 5.97631 21.1617 5.72258L21.7351 4.63337C21.8683 4.37928 21.8122 4.00604 21.6107 3.80312L20.1293 2.47804C19.9046 2.29966 19.5269 2.2853 19.2892 2.44581L18.2684 3.13832C18.0311 3.29883 17.6596 3.33315 17.443 3.2147C17.2264 3.09554 16.6247 2.58528 16.6132 2.2993L16.5648 1.06921C16.5536 0.782891 16.3181 0.487099 16.0419 0.411401L14.0948 0.00626923C13.8112 -0.0361362 13.4769 0.141202 13.3521 0.398438L12.8152 1.50729C12.6901 1.76522 12.3537 1.98004 12.067 1.98354C12.067 1.98354 11.9237 1.986 11.5879 2.01439C11.4712 2.0256 11.4712 2.02562 11.4712 2.02562C11.3454 2.04104 11.1173 1.85599 10.9645 1.61313L10.3056 0.568405C10.1528 0.326239 9.80095 0.187811 9.52374 0.260706L7.63372 0.8782C7.36737 0.983688 7.16621 1.30365 7.18689 1.58928L7.27626 2.82326C7.29658 3.10888 7.14027 3.44847 6.92789 3.57744C6.71622 3.7064 5.97745 3.9731 5.72372 3.83957L4.63275 3.26552C4.37902 3.13235 4.00473 3.18807 3.80181 3.38959L2.47673 4.87202C2.29905 5.09666 2.28538 5.4748 2.44624 5.71171L3.13909 6.73331C3.29995 6.96987 3.3336 7.34101 3.21479 7.55829C3.09529 7.77487 2.58502 8.37591 2.2987 8.38783L1.06789 8.43582C0.781921 8.44704 0.485782 8.6822 0.410433 8.95871L0.005997 10.9065C-0.035357 11.1901 0.141627 11.5244 0.399214 11.6492L1.50842 12.1857C1.766 12.3105 1.98048 12.6469 1.98363 12.934C1.98363 12.934 1.98608 13.078 2.01517 13.413C2.02604 13.5297 2.02604 13.5297 2.02604 13.5297C2.04111 13.6556 1.85642 13.884 1.6139 14.0368L0.569887 14.6957C0.32737 14.8485 0.18894 15.2 0.261835 15.4772L0.878644 17.3658C0.984483 17.6322 1.30445 17.8334 1.59043 17.8123L2.82299 17.723C3.10861 17.7019 3.44855 17.8586 3.57716 18.0706C3.70613 18.2823 3.97214 19.0221 3.83931 19.2755L3.26596 20.3651C3.13278 20.6188 3.18816 20.9927 3.39037 21.196L4.87246 22.5221C5.09781 22.6998 5.47525 22.7135 5.71251 22.553L6.73339 21.8608C6.971 21.6993 7.34179 21.6653 7.55837 21.7851C7.77495 21.9043 8.37634 22.4142 8.38791 22.7002L8.43627 23.931C8.44748 24.2166 8.68264 24.5134 8.95915 24.5891L10.9056 24.9932C11.1895 25.0349 11.5231 24.8579 11.6486 24.6007L12.1865 23.4915C12.3113 23.2343 12.6484 23.0191 12.9351 23.0152C12.9351 23.0152 13.0781 23.0131 13.4142 22.9854C13.5298 22.9753 13.5298 22.9753 13.5298 22.9753C13.6556 22.9584 13.8834 23.1435 14.0362 23.3864L14.6951 24.4311C14.8479 24.6739 15.1994 24.8131 15.477 24.7398L17.3666 24.1223C17.633 24.0168 17.8338 23.6965 17.8131 23.4109L17.7241 22.1769C17.7038 21.8913 17.8604 21.5521 18.0721 21.4227C18.2838 21.2934 19.0232 21.0278 19.277 21.1609L20.3672 21.7339C20.621 21.8675 20.9946 21.8114 21.1982 21.6095L22.5236 20.1275C22.7017 19.9025 22.7157 19.5254 22.5548 19.2878L21.8627 18.2672C21.7018 18.03 21.6671 17.6588 21.7863 17.4423C21.9051 17.225 22.4157 16.6232 22.702 16.6124ZM12.5002 20.9773C7.82541 20.9773 4.0226 17.1734 4.0226 12.4997C4.0226 7.82463 7.82576 4.02182 12.5002 4.02182C17.1746 4.02182 20.9777 7.82498 20.9777 12.4997C20.9777 17.1738 17.1746 20.9773 12.5002 20.9773Z" fill="#999999"/>
</svg>
