<svg width="17" height="17" viewBox="0 0 25 26" fill="none" xmlns="http://www.w3.org/2000/svg">
<path d="M2.35852 2.98718C1.05632 2.98718 0 4.04316 0 5.34569V23.5845C0 24.8867 1.05599 25.9427 2.35852 25.9427H22.6415C23.944 25.9427 25 24.8867 25 23.5845V5.34569C25 4.04316 23.944 2.98718 22.6415 2.98718H21.8162V4.4806C21.8162 5.47756 21.0051 6.28903 20.0078 6.28903C19.0105 6.28903 18.1997 5.47756 18.1997 4.4806V2.98718H6.80034V4.4806C6.80034 5.47756 5.98921 6.28903 4.99258 6.28903C3.99494 6.28903 3.18381 5.47756 3.18381 4.4806V2.98718H2.35852ZM3.85295 9.59123H21.147C21.6688 9.59123 22.0907 9.97335 22.0907 10.4452V22.2597C22.0907 22.7309 21.6688 23.1123 21.147 23.1123H3.85295C3.33153 23.1123 2.90927 22.7309 2.90927 22.2597V10.4452C2.90927 9.97301 3.33153 9.59123 3.85295 9.59123Z" fill="#999999"/>
<path d="M4.12793 0.864414V2.98751V4.48095C4.12793 4.95818 4.51545 5.34604 4.99268 5.34604C5.46958 5.34604 5.8571 4.95818 5.8571 4.48095V2.98751V0.864414C5.8571 0.38718 5.46924 2.20176e-07 4.99268 2.20176e-07C4.51545 -0.000337048 4.12793 0.386843 4.12793 0.864414Z" fill="#999999"/>
<path d="M19.1426 0.864414V2.98751V4.48095C19.1426 4.95818 19.5308 5.34604 20.0077 5.34604C20.4849 5.34604 20.8721 4.95818 20.8721 4.48095V2.98751V0.864414C20.8721 0.38718 20.4846 2.20176e-07 20.0077 2.20176e-07C19.5308 -0.000337048 19.1426 0.386843 19.1426 0.864414Z" fill="#999999"/>
<path d="M9.13788 11.0644H4.5625V15.747H9.13788V11.0644Z" fill="#999999"/>
<path d="M14.8984 11.0644H10.323V15.747H14.8984V11.0644Z" fill="#999999"/>
<path d="M9.13788 16.8199H4.5625V21.5022H9.13788V16.8199Z" fill="#999999"/>
<path d="M14.8984 16.8199H10.323V21.5022H14.8984V16.8199Z" fill="#999999"/>
<path d="M20.8722 11.0644H16.2971V15.747H20.8722V11.0644Z" fill="#999999"/>
<path d="M20.8722 16.8199H16.2971V21.5022H20.8722V16.8199Z" fill="#999999"/>
</svg>
