<svg width="25" height="25" viewBox="0 0 25 25" fill="none" xmlns="http://www.w3.org/2000/svg">
<path d="M20.5686 2.70732C18.898 1.1607 16.4062 0.11771 13.7745 0.0656891L13.7122 9.7726L20.5686 2.70732Z" fill="#999999"/>
<path d="M11.949 0C5.07593 0 0 5.57143 0 12.4437C0 19.3161 5.57068 24.8871 12.4434 24.8871C17.2625 24.8871 21.7437 22.0414 23.3944 18.3704L12.1991 12.4437V0.00664297C12.115 0.00516719 12.0327 0 11.949 0Z" fill="#999999"/>
<path d="M18.3641 7.16712L16.5625 12.9086L17.6014 13.4654L20.1564 5.32571L18.3641 7.16712Z" fill="#999999"/>
<path d="M16.041 9.5549L15.2146 12.187L16.2543 12.7433L17.8334 7.71313L16.041 9.5549Z" fill="#999999"/>
<path d="M23.4217 6.09792L20.6045 15.0743L21.6442 15.6311L24.1648 7.60026C23.9523 7.07931 23.7033 6.57717 23.4217 6.09792Z" fill="#999999"/>
<path d="M24.362 8.11824L21.9524 15.7956L22.9917 16.3527L24.8951 10.2895C24.7903 9.54532 24.6099 8.81813 24.362 8.11824Z" fill="#999999"/>
<path d="M25 11.7383C25 11.5428 24.9937 11.348 24.983 11.1547L23.2996 16.5176L23.9098 16.8445C24.6897 15.3326 25 13.5565 25 11.7383Z" fill="#999999"/>
<path d="M21.6515 3.78981L20.6878 4.78042L17.9097 13.6306L18.9494 14.1874L22.0725 4.23845C21.9348 4.08497 21.795 3.93407 21.6515 3.78981Z" fill="#999999"/>
<path d="M14.0737 11.5756L14.9068 12.0217L15.5097 10.1002L14.0737 11.5756Z" fill="#999999"/>
<path d="M22.3359 4.54393L19.2571 14.3523L20.2968 14.909L23.1845 5.70942C22.9229 5.301 22.6403 4.90992 22.3359 4.54393Z" fill="#999999"/>
</svg>
