<svg width="26" height="32" viewBox="0 0 26 32" fill="none" xmlns="http://www.w3.org/2000/svg">
<path d="M19.8597 17.1221C19.7761 17.1981 19.4305 17.4935 19.3405 17.5658C19.1569 17.7133 14.7592 26.2359 14.7592 26.2359L11.0106 26.2423L6.54101 17.5858C6.33703 17.4229 6.138 17.252 5.94577 17.0733L5.86527 17.1443C-0.0878591 22.2919 -0.00557046 31.2999 0.0007617 31.6807L0.00666939 32H25.4796L25.4669 31.6621C25.0436 21.2548 20.8815 17.8132 19.8597 17.1221Z" fill="#999999"/>
<path d="M12.9278 0C7.65585 0 3.3667 4.28956 3.3667 9.56153C3.3667 14.834 7.6554 19.1231 12.9278 19.1231C18.2002 19.1231 22.4898 14.8344 22.4898 9.56153C22.4898 4.29001 18.2002 0 12.9278 0Z" fill="#999999"/>
</svg>
