<svg width="17" height="19" viewBox="0 0 25 29" fill="none" xmlns="http://www.w3.org/2000/svg">
<path d="M12.5058 0.00173111C12.4994 0.00130137 12.4925 0.000875625 12.486 0.000445891V0.00343598C11.8015 0.0709042 10.0103 0.560802 7.7856 1.41683C5.54282 2.27974 3.34688 2.59475 1.51106 3.06917C-0.310583 3.53973 0.0241806 5.72492 0.0241806 5.72492C0.0241806 5.72492 0.707887 14.5624 0.985925 16.0183C2.31509 22.9753 12.3515 28.5666 12.3515 28.5666H12.355C12.355 28.5666 22.5848 23.142 23.969 16.0562C24.2595 14.5684 24.9745 5.52123 24.9745 5.52123C24.9745 5.52123 25.3256 3.27715 23.4206 2.83581C21.5143 2.39362 19.2518 2.12417 16.9609 1.3051C14.7069 0.500205 13.1998 0.0528554 12.5256 0.00343598V0C12.5196 0.000429734 12.5118 0.000871638 12.5058 0.00173111ZM16.1242 3.25007C17.8788 3.88049 19.5766 4.21096 21.0781 4.50447C21.0781 4.50447 22.4352 4.83366 22.6703 4.88437C22.6703 4.88437 22.7275 4.87577 22.7107 5.2548C22.7081 5.31367 22.7008 5.32184 22.6957 5.38801C22.4241 8.83749 21.9191 14.6806 21.724 15.6831C21.1293 18.733 18.37 21.5525 16.1697 23.372C14.7112 24.5786 13.2922 25.5198 12.3515 26.1012C11.4293 25.5116 10.0507 24.5666 8.62316 23.359C6.43753 21.5103 3.7229 18.6818 3.14362 15.6586C2.9554 14.6733 2.46851 8.9389 2.20723 5.55819C2.20207 5.4933 2.20336 5.48427 2.19305 5.42754C2.18058 5.29991 2.19176 5.13102 2.21711 5.0137C2.69798 4.89424 3.21882 4.78167 3.76802 4.66263C5.22654 4.3472 6.88402 3.98794 8.60812 3.32787C10.5505 2.58486 11.9338 2.21099 12.4908 2.10141C12.8517 2.17317 13.8092 2.41811 16.1242 3.25007Z" fill="#999999"/>
<path d="M12.4659 2.8745C12.4611 2.87407 12.456 2.87363 12.4513 2.87363V2.87579C11.945 2.92692 10.6193 3.30594 8.97084 3.97289C7.30777 4.64499 5.67693 4.88822 4.31252 5.2565C2.95714 5.62349 3.20682 7.34243 3.20682 7.34243C3.20682 7.34243 3.71519 14.2912 3.92233 15.436C4.91028 20.9027 12.3524 25.2671 12.3524 25.2671H12.3546C12.3546 25.2671 12.9798 2.91575 12.4809 2.87579V2.87321C12.4766 2.87364 12.471 2.87407 12.4659 2.8745Z" fill="#999999"/>
</svg>
