<svg width="31" height="21" viewBox="0 0 31 21" fill="none" xmlns="http://www.w3.org/2000/svg">
<path fill-rule="evenodd" clip-rule="evenodd" d="M22.7389 14.355C22.4804 14.9919 22.2294 15.611 21.9792 16.2276C21.7761 16.1963 21.7765 16.1876 21.7757 16.0015C21.775 15.815 21.7772 15.6247 21.7418 15.4434C21.6534 14.9949 21.1938 14.6955 20.7094 14.7506C20.1738 14.8116 19.7421 15.0854 19.3674 15.4457C18.5778 16.2047 18.0566 17.1248 17.7958 18.1882C17.7236 18.4838 17.7138 18.786 17.8055 19.0831C17.9243 19.4669 18.2004 19.6803 18.599 19.6929C19.2691 19.7134 19.8417 19.4617 20.3583 19.0571C20.4602 18.9775 20.5982 18.8749 20.6813 18.7777C20.7397 18.7092 21.3383 18.032 21.3807 18.065C21.4533 18.1215 20.888 18.9466 20.8316 19.0113C20.353 19.5595 19.8035 20.0005 19.0825 20.187C18.5769 20.3179 18.0691 20.335 17.5623 20.1993C16.8266 20.0025 16.3499 19.3654 16.3418 18.5784C16.3332 17.7059 16.6596 16.9491 17.1752 16.2703C18.0359 15.1369 19.1538 14.4561 20.5957 14.3173C21.0372 14.2631 21.463 14.3802 21.8777 14.5182C22.09 14.5889 22.2644 14.5636 22.4104 14.3951C22.5064 14.2842 22.6137 14.3262 22.7389 14.355Z" fill="#362D28"/>
<path fill-rule="evenodd" clip-rule="evenodd" d="M24.1864 16.6746C24.1027 16.3058 23.7777 16.0662 23.3314 16.0616C23.2462 16.0714 23.1603 16.0782 23.0758 16.0925C23.0102 16.1031 22.9446 16.1204 22.8813 16.14C22.2465 16.3405 21.7723 16.7552 21.3915 17.2822C21.1465 17.6214 20.9626 17.9939 20.9037 18.4184C20.8419 18.8631 21.0891 19.2545 21.5181 19.3299C21.702 19.3623 21.9079 19.3668 22.0851 19.3178C23.1414 19.026 23.7935 18.3083 24.1199 17.3146C24.1335 17.2739 24.1471 17.2324 24.1592 17.191C24.215 17.0018 24.2219 16.8268 24.1864 16.6746ZM22.9612 18.1273C22.6589 18.6287 22.2548 18.9401 22.0595 18.8217C21.8642 18.7041 21.9517 18.202 22.254 17.7006C22.5572 17.1993 22.9605 16.8886 23.1557 17.007C23.351 17.1247 23.2644 17.6268 22.9612 18.1273Z" fill="#362D28"/>
<path fill-rule="evenodd" clip-rule="evenodd" d="M28.2083 14.7881C28.2141 14.6554 28.2735 14.5682 28.3952 14.5418C28.769 14.461 29.1444 14.3863 29.519 14.3094C29.5283 14.3076 29.5381 14.3076 29.5477 14.3067C29.799 14.2872 29.8232 14.3189 29.7231 14.5473C29.1633 15.8233 28.602 17.0981 28.045 18.3751C27.9987 18.4809 27.9499 18.5989 27.9282 18.7513C27.9162 18.8406 27.9684 18.7857 28.0079 18.7499C28.1207 18.6391 28.2347 18.5296 28.3455 18.417C28.4177 18.3436 28.4939 18.2273 28.6308 18.2089C28.7137 18.1979 28.6982 18.2803 28.6767 18.3375C28.6671 18.3632 28.61 18.4416 28.5886 18.4683C28.3265 18.7978 28.0688 19.1362 27.6337 19.2578C27.5042 19.2939 27.3584 19.3096 27.2267 19.2898C26.9895 19.2543 26.8568 19.0501 26.9265 18.8093C27.0044 18.5397 27.1123 18.2772 27.2255 18.0198C27.6518 17.0516 28.0857 16.0868 28.5164 15.1204C28.6266 14.8737 28.6142 14.8516 28.3496 14.8143C28.3033 14.808 28.2576 14.7975 28.2083 14.7881Z" fill="#362D28"/>
<path fill-rule="evenodd" clip-rule="evenodd" d="M26.4415 16.0616C26.3563 16.0714 26.2703 16.0782 26.1859 16.0925C26.1203 16.1031 26.0547 16.1204 25.9914 16.14C25.6054 16.2621 25.2782 16.4634 24.9962 16.7213C24.8138 16.8864 24.6501 17.0756 24.5016 17.2822C24.4986 17.2868 24.4956 17.2905 24.4926 17.295C24.2521 17.6305 24.0719 17.9992 24.0138 18.4184C23.952 18.8631 24.2001 19.2545 24.6282 19.3299C24.8114 19.3623 25.018 19.3668 25.1952 19.3178C26.2952 19.014 26.9563 18.2487 27.2693 17.191C27.4608 16.5448 27.0732 16.0676 26.4415 16.0616ZM26.0712 18.1273C25.7689 18.6287 25.3648 18.9401 25.1695 18.8217C24.9743 18.7041 25.0617 18.202 25.364 17.7006C25.6672 17.1993 26.0705 16.8886 26.2657 17.007C26.461 17.1247 26.3744 17.6268 26.0712 18.1273Z" fill="#362D28"/>
<path fill-rule="evenodd" clip-rule="evenodd" d="M6.36432 14.3814C6.12261 14.9793 5.88603 15.5678 5.64387 16.1544C5.62804 16.1925 5.55257 16.2452 5.53379 16.2354C5.48049 16.2078 5.4094 16.1546 5.40435 16.105C5.38339 15.9103 5.4054 15.7097 5.37449 15.5171C5.29887 15.0411 4.84146 14.7197 4.35894 14.7752C3.8667 14.8319 3.45363 15.0606 3.09974 15.3855C2.25918 16.1564 1.70557 17.1054 1.44757 18.2158C1.39307 18.4499 1.39857 18.7092 1.43031 18.9498C1.49711 19.4538 1.86925 19.7256 2.37958 19.6978C3.07734 19.6597 3.65711 19.3621 4.17371 18.9126C4.23349 18.8603 4.30029 18.8059 4.3732 18.7824C4.41496 18.7693 4.48651 18.8069 4.52391 18.843C4.5417 18.8603 4.52685 18.9402 4.50144 18.9702C3.97783 19.5897 3.36429 20.0752 2.54349 20.2287C2.02101 20.3263 1.49703 20.333 0.996349 20.1216C0.358752 19.8523 0.0430024 19.3449 0.00500439 18.6703C-0.0476952 17.7288 0.320526 16.9251 0.887632 16.2057C1.72306 15.1463 2.82402 14.5353 4.15644 14.3481C4.57314 14.2895 4.97996 14.375 5.37758 14.5019C5.45433 14.5264 5.531 14.553 5.60903 14.5713C5.74934 14.6037 5.87932 14.5846 5.98894 14.4801C6.14319 14.3335 6.1441 14.3343 6.36432 14.3814Z" fill="#362D28"/>
<path fill-rule="evenodd" clip-rule="evenodd" d="M11.424 14.5089C11.2166 14.5398 11.0748 14.6333 10.96 14.7622C10.6755 15.0812 10.4858 15.4586 10.297 15.8604C10.4433 15.8604 10.5694 15.8604 10.7224 15.8604C10.6544 16.0129 10.6054 16.1505 10.5317 16.2735C10.5079 16.3136 10.4177 16.3381 10.3627 16.3312C10.135 16.3019 10.0317 16.4105 9.9425 16.6113C9.55392 17.4862 9.18842 18.3738 8.67115 19.1853C8.31077 19.7502 7.91277 20.2824 7.34076 20.6552C6.78082 21.0198 6.15724 21.0393 5.69245 20.7108C5.51075 20.5821 5.41221 20.4102 5.42789 20.1826C5.44169 19.9855 5.66206 19.812 5.89465 19.8125C6.08728 19.8132 6.2349 19.9469 6.25232 20.132C6.26498 20.2674 6.20761 20.3661 6.10078 20.4411C6.06074 20.469 6.0183 20.4932 5.96349 20.5273C6.12234 20.6991 6.30253 20.6777 6.47502 20.6244C6.87672 20.5003 7.20392 20.2542 7.40718 19.8936C7.71893 19.3412 8.00188 18.7718 8.27646 18.1997C8.53807 17.6547 8.77345 17.0969 9.01976 16.5448C9.04396 16.4905 9.06507 16.4352 9.09402 16.3639C8.95454 16.3639 8.83173 16.3639 8.68713 16.3639C8.75144 16.1925 8.80874 16.0392 8.86799 15.8803C9.23463 15.9276 9.4342 15.7001 9.60323 15.4386C9.83438 15.0809 10.1221 14.7822 10.4777 14.5496C10.8359 14.3155 11.2221 14.196 11.6544 14.2785C11.9173 14.3286 12.0631 14.5015 12.0359 14.7367C12.0022 15.034 11.8052 15.2109 11.532 15.189C11.2947 15.1701 11.1866 14.9957 11.2803 14.7739C11.3151 14.6915 11.3652 14.6156 11.424 14.5089Z" fill="#362D28"/>
<path fill-rule="evenodd" clip-rule="evenodd" d="M14.4169 14.5089C14.21 14.5398 14.068 14.6333 13.9534 14.7622C13.669 15.0812 13.4791 15.4586 13.2906 15.8604C13.4366 15.8604 13.5627 15.8604 13.7159 15.8604C13.6481 16.0129 13.5987 16.1505 13.525 16.2735C13.5012 16.3136 13.411 16.3381 13.3563 16.3312C13.1283 16.3019 13.025 16.4105 12.9358 16.6113C12.547 17.4862 12.1821 18.3738 11.6644 19.1853C11.3041 19.7502 10.9063 20.2824 10.334 20.6552C9.77425 21.0198 9.15068 21.0393 8.68595 20.7108C8.50426 20.5821 8.4055 20.4102 8.42118 20.1826C8.43497 19.9855 8.65565 19.812 8.88831 19.8125C9.08071 19.8132 9.22833 19.9469 9.24575 20.132C9.25849 20.2674 9.20119 20.3661 9.09406 20.4411C9.05433 20.469 9.01143 20.4932 8.95677 20.5273C9.11577 20.6991 9.29604 20.6777 9.46846 20.6244C9.8703 20.5003 10.1971 20.2542 10.4006 19.8936C10.7119 19.3412 10.9953 18.7718 11.2697 18.1997C11.5314 17.6547 11.7667 17.0969 12.0134 16.5448C12.0373 16.4905 12.0583 16.4352 12.0873 16.3639C11.948 16.3639 11.8252 16.3639 11.6804 16.3639C11.7445 16.1925 11.8017 16.0392 11.8615 15.8803C12.2278 15.9276 12.4277 15.7001 12.5965 15.4386C12.8276 15.0809 13.1155 14.7822 13.4711 14.5496C13.8294 14.3155 14.2156 14.196 14.648 14.2785C14.9103 14.3286 15.0561 14.5015 15.0292 14.7367C14.9953 15.034 14.7985 15.2109 14.5253 15.189C14.2879 15.1701 14.1798 14.9957 14.2735 14.7739C14.3085 14.6915 14.3587 14.6156 14.4169 14.5089Z" fill="#362D28"/>
<path fill-rule="evenodd" clip-rule="evenodd" d="M7.31842 16.6481C7.39607 16.523 7.44575 16.4226 7.51534 16.339C7.55817 16.2873 7.62949 16.2342 7.69207 16.2292C7.87226 16.2146 8.05448 16.2243 8.2597 16.2243C8.23625 16.2824 8.21899 16.3316 8.19712 16.3787C7.88635 17.0511 7.57332 17.7228 7.26466 18.3963C7.21679 18.5008 7.18369 18.6127 7.1518 18.7237C7.13951 18.767 7.14976 18.8167 7.14976 18.8737C7.42163 18.8392 7.49997 18.5297 7.76158 18.48C7.59858 18.915 6.94997 19.3812 6.5179 19.3917C6.31841 19.3964 6.1882 19.2836 6.21504 19.0875C6.24173 18.8925 6.31109 18.7033 6.35105 18.5526C6.18782 18.7055 6.00033 18.8959 5.79684 19.0672C5.68654 19.1596 5.55596 19.2373 5.42244 19.291C5.02429 19.4518 4.7301 19.2541 4.70145 18.8247C4.67808 18.476 4.77104 18.1515 4.92786 17.8497C5.2421 17.2447 5.66656 16.729 6.24693 16.359C6.38475 16.2712 6.54315 16.201 6.70208 16.1627C7.10189 16.0669 7.28064 16.2059 7.31842 16.6481ZM5.5782 18.4841C5.59207 18.4898 5.60557 18.4951 5.61944 18.5008C5.6159 18.7032 5.71752 18.7668 5.89651 18.6715C5.94476 18.6454 5.99271 18.6145 6.03214 18.5763C6.50629 18.1158 6.85611 17.5752 7.04987 16.9416C7.08644 16.8221 7.08101 16.6831 7.06638 16.557C7.05191 16.4307 6.95405 16.3858 6.84329 16.4492C6.74483 16.5053 6.63717 16.5702 6.57414 16.6597C6.34336 16.9885 6.11077 17.3188 5.91588 17.669C5.77347 17.9239 5.6888 18.2113 5.5782 18.4841Z" fill="#362D28"/>
<path fill-rule="evenodd" clip-rule="evenodd" d="M13.4808 19.4125C13.0105 19.4269 12.69 19.0924 12.7427 18.5004C12.7522 18.3958 12.7746 18.291 12.804 18.19C13.1098 17.1462 14.3065 16.1902 15.392 16.1192C15.9573 16.0824 16.1874 16.4108 15.9365 16.917C15.6387 17.5185 15.1225 17.8354 14.4838 17.9697C14.3072 18.0072 14.1232 18.0078 13.9449 18.0389C13.895 18.0473 13.8304 18.0945 13.8127 18.1398C13.7763 18.232 13.7578 18.3343 13.7486 18.4338C13.7186 18.7616 13.9079 18.9384 14.2287 18.8681C14.4041 18.8297 14.5749 18.7632 14.7411 18.6927C14.8843 18.6316 15.0145 18.5411 15.1564 18.4767C15.1984 18.4575 15.2606 18.4818 15.3134 18.4866C15.3026 18.5381 15.3095 18.6061 15.2788 18.6389C14.8258 19.1185 14.2725 19.3859 13.4808 19.4125ZM13.9676 17.7292C14.0255 17.7292 14.0559 17.7332 14.0848 17.7286C14.5658 17.6547 15.0593 17.1698 15.1472 16.6858C15.1524 16.6562 15.1594 16.6262 15.159 16.5961C15.1569 16.4793 15.1019 16.4396 14.9941 16.4816C14.9433 16.5016 14.8943 16.5305 14.8505 16.5636C14.4546 16.8636 14.1999 17.2706 13.9676 17.7292Z" fill="#362D28"/>
<path d="M15.8938 8.73085C14.9042 7.87499 14.841 7.08955 15.644 6.11238C15.7584 5.97313 15.8758 5.83576 15.9799 5.6889C16.7194 4.64387 16.4669 3.58656 15.3432 3.01063C15.2503 2.96306 15.1573 2.91564 15.0411 2.85623C15.052 2.91549 15.0504 2.95108 15.0648 2.97829C15.4462 3.69875 15.3601 4.36446 14.8386 4.98382C14.7539 5.08454 14.6774 5.19379 14.6085 5.30605C13.6725 6.82703 14.6036 8.46041 15.8938 8.73085Z" fill="#D56627"/>
<path d="M13.9416 7.44203C13.372 6.82916 13.3558 6.28709 13.8642 5.63373C13.9366 5.54062 14.0108 5.44879 14.0773 5.35025C14.5494 4.64857 14.4272 3.91493 13.7696 3.49144C13.7152 3.45646 13.6608 3.42155 13.5927 3.3779C13.5976 3.41884 13.5957 3.44334 13.6036 3.46242C13.8123 3.96747 13.7424 4.42367 13.4126 4.83743C13.3591 4.90461 13.3103 4.97811 13.2659 5.05358C12.6627 6.0781 13.1756 7.2249 13.9416 7.44203Z" fill="#D56627"/>
<path d="M16.3732 7.99183C16.2084 7.71325 16.1371 7.42774 16.2999 7.13047C16.3739 6.99521 16.4741 6.87368 16.5674 6.74958C16.7651 6.48631 16.8087 6.20954 16.6805 5.93338C16.4838 6.20344 16.2917 6.47651 16.0898 6.74227C15.7029 7.2517 15.7869 7.66304 16.3732 7.99183Z" fill="#D56627"/>
<path d="M26.5657 12.9688C26.6155 12.9247 26.667 12.8792 26.7216 12.8311C27.3187 12.3045 27.3085 12.0473 26.6704 11.5464C25.3955 10.5454 25.3955 10.5454 26.3063 9.19449C26.7287 8.56805 26.6228 8.1567 25.9111 7.94395C24.5482 7.53645 24.1898 7.68904 24.8272 5.76796C24.84 5.72936 24.8623 5.69385 24.8731 5.65495C25.0175 5.13828 24.8614 4.88126 24.3149 4.81386C23.9733 4.77164 23.6237 4.79803 23.2784 4.77993C22.561 4.74246 22.3928 4.56386 22.3794 3.84521C22.3764 3.68244 22.3789 3.51952 22.3779 3.35667C22.3728 2.27282 22.2112 2.14352 21.1608 2.38274C19.7277 2.70904 19.7277 2.70912 19.1998 1.32566C18.8609 0.437378 18.6947 0.382344 17.8976 0.894789C16.6064 1.72502 16.6064 1.72501 15.6246 0.526117C15.0491 -0.176696 14.7928 -0.18054 14.2317 0.54572C13.2315 1.84037 13.2803 1.7888 11.9892 0.904816C11.1683 0.342838 10.9477 0.449442 10.634 1.40377C10.2737 2.50013 10.1355 2.98845 8.8609 2.41132C8.77149 2.37083 8.66006 2.38176 8.56114 2.35907C7.70739 2.16245 7.50677 2.28556 7.51114 3.1384C7.51981 4.81703 7.3247 4.79969 5.81819 4.79479C5.01511 4.79223 4.83017 5.06688 5.04866 5.81923C5.50207 7.38114 5.50207 7.38114 3.9627 7.93385C3.25114 8.18943 3.11362 8.55885 3.546 9.16916C4.54232 10.5757 4.56207 10.5507 3.16135 11.5664C2.55745 12.0044 2.557 12.3494 3.12455 12.8176C3.18909 12.8708 3.2568 12.9203 3.32495 12.969H0.406494V13.4172H30.117V12.969L26.5657 12.9688ZM5.27378 12.1838C5.28992 6.88437 9.6235 2.5658 14.9275 2.56361C20.2531 2.5615 24.6161 6.93353 24.5877 12.2643C24.5864 12.5011 24.5754 12.7359 24.557 12.9687H20.9481C22.0332 12.2342 22.5576 11.1779 22.1416 10.5303C21.9095 10.1692 21.413 10.0103 20.7948 10.0925C20.8197 9.93726 20.8392 9.78293 20.8528 9.63169C20.87 9.44216 20.8078 9.2594 20.6779 9.11721C20.546 8.97291 20.3585 8.89013 20.1631 8.89013H10.1295C9.93405 8.89013 9.74647 8.97291 9.61468 9.11721C9.4847 9.2594 9.4225 9.44216 9.43969 9.63169C9.55436 10.9004 10.0048 12.0453 10.688 12.9687H5.30477C5.28441 12.7098 5.27295 12.4482 5.27378 12.1838ZM19.6612 12.8774C20.1068 12.2532 20.4451 11.5348 20.6479 10.7793C21.0721 10.6808 21.4064 10.7347 21.5283 10.9245C21.6282 11.0802 21.587 11.3306 21.415 11.6114C21.2251 11.9216 20.9039 12.2315 20.5105 12.4843C20.2308 12.6641 19.9378 12.799 19.6612 12.8774ZM4.46678 11.9883C4.60135 6.19928 9.31417 1.70564 15.0641 1.7603C20.806 1.81496 25.6137 6.68534 25.3753 12.7074C25.3719 12.7948 25.3663 12.8819 25.3603 12.9688H24.9145C24.9337 12.7219 24.9448 12.4728 24.9454 12.2214C24.9587 6.73269 20.463 2.22615 14.9768 2.20874C9.4311 2.19117 4.92419 6.66702 4.918 12.1982C4.9177 12.4576 4.92863 12.7144 4.94786 12.9688H4.49083C4.46783 12.6454 4.45901 12.3185 4.46678 11.9883Z" fill="#2F4B9F"/>
</svg>
