<svg width="25" height="28" viewBox="0 0 25 28" fill="none" xmlns="http://www.w3.org/2000/svg">
<path fill-rule="evenodd" clip-rule="evenodd" d="M15.5046 14.0005C15.5047 9.90562 15.5039 5.81069 15.5052 1.71577C15.5055 0.82747 15.9016 0.200335 16.5854 0.0254356C16.7338 -0.0125203 16.9035 -0.00763215 17.0507 0.0376562C19.0955 0.667092 21.1379 1.30817 23.1817 1.94235C23.3824 2.00461 23.5877 2.04724 23.7924 2.08749C24.5408 2.2345 24.9984 2.87997 24.9984 3.80658C24.9982 7.00408 24.9949 10.2016 24.995 13.399C24.9952 16.884 24.9972 20.3689 24.9998 23.8538C25.0002 24.3018 25.0119 24.7767 24.7382 25.1095C24.5168 25.3786 24.2384 25.6479 23.9452 25.7503C22.8239 26.1421 21.6848 26.4583 20.5556 26.8182C19.4351 27.1756 18.3074 27.5091 17.204 27.9337C16.4081 28.2401 15.4945 27.4429 15.501 26.393C15.5064 25.5308 15.5017 24.6685 15.5019 23.8063C15.5027 21.1476 15.5036 18.489 15.5044 15.8304C15.5046 15.2205 15.5045 14.6105 15.5046 14.0005ZM18.5416 9.68723C18.5398 9.17152 18.2667 8.76205 17.9179 8.75206C17.5592 8.74185 17.2722 9.16109 17.272 9.69607C17.2718 10.2116 17.5448 10.6197 17.8951 10.6274C18.2592 10.6353 18.5435 10.2218 18.5416 9.68723Z" fill="#999999"/>
<path fill-rule="evenodd" clip-rule="evenodd" d="M7.71803 16.6307C7.71803 17.1662 7.71803 17.6472 7.71803 18.1281C7.71803 18.607 7.71803 19.086 7.71803 19.6209C5.13016 17.7364 2.58252 15.8811 0 14.0004C2.58121 12.1208 5.12891 10.2655 7.71333 8.38354C7.71333 9.39757 7.71333 10.3576 7.71333 11.3565C9.32152 11.3565 12.0796 11.3565 13.6811 11.3565C13.6811 13.1287 13.6811 14.8619 13.6811 16.6307C12.0898 16.6307 9.33872 16.6307 7.71803 16.6307Z" fill="#999999"/>
<path fill-rule="evenodd" clip-rule="evenodd" d="M14.6381 24.4527C14.6381 24.9519 14.6381 25.4029 14.6381 25.8906C14.5516 25.8996 14.4671 25.9158 14.3826 25.916C13.104 25.9187 11.8253 25.9238 10.5466 25.9187C9.72044 25.9155 9.20215 25.293 9.2003 24.3075C9.19709 22.6075 9.19965 20.9075 9.20054 19.2075C9.2006 19.1136 9.20733 19.0198 9.21197 18.902C9.65556 18.902 10.0843 18.902 10.5463 18.902C10.5463 19.0461 10.5463 19.1744 10.5464 19.3027C10.547 20.5597 10.5467 21.8168 10.5488 23.0738C10.5503 23.9666 10.9433 24.4452 11.6884 24.4504C12.5606 24.4567 13.4329 24.4524 14.3052 24.4527C14.4115 24.4527 14.5178 24.4527 14.6381 24.4527Z" fill="#999999"/>
<path fill-rule="evenodd" clip-rule="evenodd" d="M10.5482 9.09797C10.0826 9.09797 9.66012 9.09797 9.21623 9.09797C9.21105 8.96325 9.20266 8.84679 9.2026 8.73027C9.20153 7.06632 9.19974 5.40222 9.20206 3.73827C9.20355 2.69226 9.70494 2.08151 10.5654 2.07835C11.8242 2.07375 13.083 2.07533 14.3417 2.07425C14.4297 2.07418 14.5176 2.07425 14.629 2.07425C14.629 2.55912 14.629 3.01948 14.629 3.52067C14.527 3.52671 14.4217 3.53807 14.3163 3.53829C13.4441 3.54001 12.5718 3.53591 11.6996 3.54116C10.9415 3.54576 10.5471 4.02769 10.5467 4.94043C10.5459 6.18542 10.5475 7.43049 10.5481 8.67542C10.5483 8.80496 10.5482 8.93457 10.5482 9.09797Z" fill="#999999"/>
</svg>
