<svg width="13" height="15" viewBox="0 0 13 15" fill="none" xmlns="http://www.w3.org/2000/svg">
<path d="M8.69214 0.223619V1.60377C8.69214 1.72727 8.79224 1.82739 8.91574 1.82739H10.8779V12.6408H8.91574C8.79224 12.6408 8.69214 12.7406 8.69214 12.8642V14.2445C8.69214 14.368 8.79224 14.4679 8.91574 14.4679H12.4848C12.6088 14.4679 12.7089 14.368 12.7089 14.2445V0.223619C12.7089 0.100113 12.6088 0 12.4848 0H8.91574C8.79224 0 8.69214 0.100113 8.69214 0.223619Z" fill="#4D4E50"/>
<path d="M7.59253 5.56787V8.90027C7.59253 9.01118 7.70951 9.10116 7.85372 9.10116H9.03051C9.17471 9.10116 9.29124 9.0114 9.29124 8.90027V5.56787C9.29124 5.45719 9.17449 5.36697 9.03051 5.36697H7.85372C7.70951 5.36697 7.59253 5.45696 7.59253 5.56787Z" fill="#4D4E50"/>
<path d="M2.41894 4.958L0.136666 6.88797C-0.0455553 7.04184 -0.0455553 7.42654 0.136666 7.58019L2.41894 9.50994L4.70143 11.4397C4.88342 11.5936 5.11063 11.4012 5.11063 11.0935V9.07013H6.99584C7.0919 9.07013 7.16974 8.9932 7.16974 8.89826V5.51142C7.16974 5.41671 7.0919 5.33954 6.99584 5.33954H5.11063V3.37425C5.11063 3.06673 4.8832 2.87415 4.70143 3.02825L2.41894 4.958Z" fill="#4D4E50"/>
</svg>
