<svg width="11" height="13" viewBox="0 0 11 13" fill="none" xmlns="http://www.w3.org/2000/svg">
<path fill-rule="evenodd" clip-rule="evenodd" d="M0 8.64091C0 9.03144 0.299536 9.33013 0.664314 9.33013H9.51083C9.87647 9.33013 10.1743 9.03145 10.1743 8.66667C10.1606 8.2873 9.86789 8.00234 9.51083 8.00234C8.51949 6.6694 8.39333 4.26444 8.0646 3.16495C7.71527 1.99766 6.875 1.14709 5.69484 0.930799C5.50086 0.895609 5.77894 -0.0219153 5.08715 0.000400508C4.54471 0.0184248 4.71809 0.891317 4.54472 0.919641C3.32936 1.11619 2.46505 1.97449 2.10971 3.1641C1.78098 4.26272 1.65566 6.66854 0.676337 8.00148C0.307267 8.00148 0.0137328 8.28644 0 8.64091ZM5.08715 9.652C5.76693 9.652 6.31881 10.203 6.31881 10.8828C6.31881 11.5634 5.76693 12.1145 5.08715 12.1145C4.40738 12.1145 3.85549 11.5634 3.85549 10.8828C3.85635 10.2022 4.40738 9.652 5.08715 9.652Z" fill="#999999"/>
</svg>
