<svg width="18" height="18" viewBox="0 0 18 18" fill="none" xmlns="http://www.w3.org/2000/svg">
<path d="M10.3119 1.41792C10.3119 0.634977 9.80842 0 9.18741 0H8.81257C8.19156 0 7.68806 0.634883 7.68806 1.41792V16.5821C7.68806 17.3652 8.19156 18 8.81257 18H9.18741C9.80842 18 10.3119 17.3652 10.3119 16.5821V1.41792Z" fill="#BFBFBF"/>
<path d="M16.582 10.312C17.365 10.312 18 9.80848 18 9.18747V8.81263C18 8.19162 17.3651 7.68812 16.582 7.68812H1.418C0.634879 7.68812 0 8.19162 0 8.81263V9.18747C0 9.80848 0.634785 10.312 1.418 10.312H16.582Z" fill="#BFBFBF"/>
</svg>
