<svg width="15" height="18" viewBox="0 0 15 18" fill="none" xmlns="http://www.w3.org/2000/svg">
<path d="M1.04853 0.000283565C0.470697 0.000283565 0 0.470399 0 1.04882V16.5462C0 17.1243 0.470697 17.595 1.04853 17.595H10.4074V15.5357C10.4074 14.6274 11.1461 13.8887 12.0544 13.8887H14.3382V1.04852C14.3382 0.470098 13.8678 0 13.2897 0H1.04853V0.000283565ZM11.6049 9.6005H2.73268V8.87894H11.6049V9.6005ZM11.6049 7.07515H2.73268V6.35358H11.6049V7.07515ZM11.6049 4.54951H2.73268V3.82823H11.6049V4.54951Z" fill="#0A3CBB"/>
<path d="M11.0059 15.5359V17.2006L13.8837 14.4868H12.0544C11.4762 14.4871 11.0059 14.9578 11.0059 15.5359Z" fill="#0A3CBB"/>
</svg>
