<svg width="12" height="15" viewBox="0 0 12 15" fill="none" xmlns="http://www.w3.org/2000/svg">
<path d="M0.871576 0.000241743C0.391259 0.000241743 0 0.401023 0 0.894133V14.1059C0 14.5987 0.391259 15 0.871576 15H8.65102V13.2444C8.65102 12.4701 9.26505 11.8403 10.02 11.8403H11.9184V0.893877C11.9184 0.400766 11.5274 0 11.0468 0L0.871576 0.000241743ZM9.64641 8.18459H2.27149V7.56944H9.64641V8.18459ZM9.64641 6.03168H2.27149V5.41653H9.64641V6.03168ZM9.64641 3.87853H2.27149V3.26363H9.64641V3.87853Z" fill="#0A3CBB" fill-opacity="0.5"/>
<path d="M9.60783 13.2446V14.6638L12 12.3503H10.4794C9.99883 12.3505 9.60783 12.7518 9.60783 13.2446Z" fill="#0A3CBB" fill-opacity="0.5"/>
</svg>
