<svg width="12" height="12" viewBox="0 0 12 12" fill="none" xmlns="http://www.w3.org/2000/svg">
<path d="M11.6612 11.6594C11.3261 11.9962 10.8875 12.1009 10.6811 11.8936L10.2952 11.5056L11.4947 10.2721L11.8945 10.6737C12.1005 10.8813 11.996 11.3225 11.6612 11.6594Z" fill="#999999"/>
<path d="M11.1553 9.88673L8.6662 7.38377C9.16496 6.63057 9.45703 5.72654 9.45703 4.75386C9.45703 2.12845 7.34021 0 4.72878 0C2.11752 0 -0.0390067 2.12879 0.000535265 4.75386C0.0414063 7.42837 2.14859 9.54496 4.72878 9.50738C5.75189 9.49268 6.69724 9.17697 7.47097 8.62155L9.95646 11.1203L11.1553 9.88673ZM8.05313 4.81867C8.05313 6.66465 6.56466 8.16118 4.72862 8.16118C2.89258 8.16118 1.40411 6.66465 1.40411 4.81867C1.40411 2.97268 2.89258 1.47615 4.72862 1.47615C6.56466 1.47615 8.05313 2.97252 8.05313 4.81867Z" fill="#999999"/>
</svg>
