<svg width="13" height="13" viewBox="0 0 13 13" fill="none" xmlns="http://www.w3.org/2000/svg">
<path fill-rule="evenodd" clip-rule="evenodd" d="M7.09828 12.7867C8.44318 11.6888 11.2355 9.40508 12.5788 8.30585C13.1349 7.85083 13.1402 7.19356 12.5957 6.77847C12.0996 6.40018 11.3511 6.40719 10.8655 6.80023C9.92165 7.56404 6.54237 10.3426 6.50039 10.3943H6.49959C6.45761 10.3426 3.07833 7.56404 2.13452 6.80023C1.64886 6.40719 0.900421 6.4002 0.404264 6.77847C-0.140168 7.19356 -0.134873 7.85083 0.421196 8.30585C1.76448 9.40508 4.55683 11.6888 5.90173 12.7867C5.90173 12.7867 6.15837 12.9975 6.48886 13C6.82176 13.0025 7.09828 12.7867 7.09828 12.7867Z" fill="#999999"/>
<path fill-rule="evenodd" clip-rule="evenodd" d="M7.09828 6.28669C8.44318 5.18879 11.2355 2.90508 12.5788 1.80585C13.1349 1.35083 13.1402 0.693564 12.5957 0.278473C12.0996 -0.0998193 11.3511 -0.0928126 10.8655 0.300227C9.92165 1.06404 6.54237 3.84258 6.50039 3.89431H6.49959C6.45761 3.84258 3.07833 1.06404 2.13452 0.300227C1.64886 -0.0928126 0.900421 -0.0997994 0.404264 0.278473C-0.140168 0.693564 -0.134873 1.35083 0.421196 1.80585C1.76448 2.90508 4.55683 5.18879 5.90173 6.28669C5.90173 6.28669 6.15837 6.4975 6.48886 6.49998C6.82176 6.50248 7.09828 6.28669 7.09828 6.28669Z" fill="#999999"/>
</svg>
