<svg width="31" height="21" viewBox="0 0 31 21" fill="none" xmlns="http://www.w3.org/2000/svg">
<path fill-rule="evenodd" clip-rule="evenodd" d="M22.7389 14.355C22.4804 14.9919 22.2294 15.611 21.9792 16.2276C21.7761 16.1963 21.7766 16.1876 21.7757 16.0015C21.775 15.815 21.7772 15.6247 21.7418 15.4434C21.6534 14.9949 21.1938 14.6955 20.7094 14.7506C20.1738 14.8116 19.7421 15.0854 19.3674 15.4457C18.5779 16.2047 18.0566 17.1248 17.7958 18.1882C17.7236 18.4838 17.7138 18.786 17.8055 19.0831C17.9243 19.4669 18.2004 19.6803 18.599 19.6929C19.2691 19.7134 19.8417 19.4617 20.3583 19.0571C20.4602 18.9775 20.5982 18.8749 20.6813 18.7777C20.7397 18.7092 21.3383 18.032 21.3807 18.065C21.4533 18.1215 20.888 18.9466 20.8316 19.0113C20.353 19.5595 19.8035 20.0005 19.0825 20.187C18.5769 20.3179 18.0691 20.335 17.5623 20.1993C16.8266 20.0025 16.3499 19.3654 16.3418 18.5784C16.3332 17.7059 16.6596 16.9491 17.1752 16.2703C18.0359 15.1369 19.1539 14.4561 20.5957 14.3173C21.0372 14.2631 21.463 14.3802 21.8777 14.5182C22.09 14.5889 22.2644 14.5636 22.4104 14.3951C22.5064 14.2842 22.6137 14.3262 22.7389 14.355Z" fill="white"/>
<path fill-rule="evenodd" clip-rule="evenodd" d="M24.1863 16.6746C24.1027 16.3059 23.7777 16.0662 23.3313 16.0617C23.2462 16.0715 23.1602 16.0782 23.0758 16.0925C23.0102 16.1031 22.9446 16.1204 22.8813 16.14C22.2464 16.3405 21.7722 16.7552 21.3915 17.2822C21.1465 17.6215 20.9625 17.9939 20.9036 18.4184C20.8419 18.8631 21.0891 19.2545 21.5181 19.3299C21.702 19.3623 21.9079 19.3668 22.085 19.3178C23.1414 19.026 23.7934 18.3083 24.1199 17.3146C24.1335 17.2739 24.147 17.2324 24.1592 17.191C24.215 17.0018 24.2218 16.8268 24.1863 16.6746ZM22.9612 18.1274C22.6588 18.6287 22.2547 18.9401 22.0595 18.8217C21.8642 18.7041 21.9517 18.202 22.254 17.7006C22.5571 17.1993 22.9604 16.8886 23.1557 17.007C23.351 17.1247 23.2643 17.6268 22.9612 18.1274Z" fill="white"/>
<path fill-rule="evenodd" clip-rule="evenodd" d="M28.2081 14.7881C28.214 14.6554 28.2734 14.5682 28.3951 14.5418C28.7689 14.461 29.1443 14.3863 29.5188 14.3094C29.5282 14.3076 29.538 14.3076 29.5476 14.3067C29.7989 14.2872 29.823 14.319 29.7229 14.5473C29.1632 15.8233 28.6019 17.0982 28.0449 18.3751C27.9986 18.4809 27.9498 18.5989 27.928 18.7513C27.9161 18.8406 27.9683 18.7858 28.0078 18.7499C28.1206 18.6391 28.2346 18.5296 28.3453 18.417C28.4176 18.3437 28.4938 18.2273 28.6306 18.2089C28.7136 18.1979 28.6981 18.2803 28.6765 18.3375C28.667 18.3633 28.6098 18.4416 28.5885 18.4683C28.3263 18.7978 28.0686 19.1363 27.6336 19.2578C27.5041 19.2939 27.3582 19.3096 27.2266 19.2898C26.9894 19.2543 26.8566 19.0502 26.9264 18.8093C27.0043 18.5398 27.1121 18.2772 27.2254 18.0198C27.6516 17.0516 28.0855 16.0868 28.5163 15.1205C28.6265 14.8737 28.614 14.8516 28.3495 14.8143C28.3031 14.808 28.2574 14.7975 28.2081 14.7881Z" fill="white"/>
<path fill-rule="evenodd" clip-rule="evenodd" d="M26.4414 16.0617C26.3562 16.0715 26.2702 16.0782 26.1858 16.0925C26.1202 16.1031 26.0546 16.1204 25.9913 16.14C25.6053 16.2621 25.2781 16.4634 24.9961 16.7213C24.8136 16.8864 24.65 17.0756 24.5015 17.2822C24.4985 17.2868 24.4955 17.2905 24.4925 17.295C24.252 17.6305 24.0718 17.9992 24.0137 18.4184C23.9519 18.8631 24.1999 19.2545 24.6281 19.3299C24.8113 19.3623 25.0179 19.3668 25.1951 19.3178C26.2951 19.014 26.9562 18.2487 27.2692 17.191C27.4607 16.5448 27.0731 16.0676 26.4414 16.0617ZM26.0711 18.1274C25.7688 18.6287 25.3647 18.9401 25.1694 18.8217C24.9742 18.7041 25.0616 18.202 25.3639 17.7006C25.6671 17.1993 26.0704 16.8886 26.2656 17.007C26.4609 17.1247 26.3743 17.6268 26.0711 18.1274Z" fill="white"/>
<path fill-rule="evenodd" clip-rule="evenodd" d="M6.36431 14.3815C6.1226 14.9793 5.88602 15.5678 5.64386 16.1544C5.62803 16.1926 5.55256 16.2452 5.53379 16.2354C5.48048 16.2078 5.40939 16.1546 5.40434 16.105C5.38338 15.9103 5.40539 15.7097 5.37448 15.5171C5.29886 15.0411 4.84145 14.7198 4.35894 14.7752C3.8667 14.8319 3.45362 15.0606 3.09973 15.3855C2.25917 16.1564 1.70556 17.1054 1.44757 18.2158C1.39306 18.4499 1.39856 18.7092 1.4303 18.9498C1.4971 19.4538 1.86924 19.7256 2.37957 19.6978C3.07734 19.6597 3.65711 19.3621 4.1737 18.9126C4.23349 18.8603 4.30028 18.8059 4.37319 18.7825C4.41496 18.7693 4.48651 18.8069 4.5239 18.843C4.54169 18.8603 4.52684 18.9402 4.50143 18.9703C3.97783 19.5897 3.36428 20.0752 2.54348 20.2287C2.02101 20.3263 1.49703 20.3331 0.996342 20.1216C0.358744 19.8523 0.0429948 19.345 0.00499676 18.6703C-0.0477029 17.7288 0.320518 16.9251 0.887624 16.2057C1.72305 15.1463 2.82401 14.5353 4.15643 14.3481C4.57313 14.2896 4.97995 14.3751 5.37757 14.5019C5.45432 14.5264 5.53099 14.553 5.60903 14.5713C5.74933 14.6037 5.87931 14.5846 5.98893 14.4801C6.14319 14.3335 6.14409 14.3343 6.36431 14.3815Z" fill="white"/>
<path fill-rule="evenodd" clip-rule="evenodd" d="M11.4239 14.5089C11.2165 14.5399 11.0748 14.6333 10.9599 14.7622C10.6754 15.0812 10.4857 15.4586 10.2969 15.8604C10.4432 15.8604 10.5693 15.8604 10.7223 15.8604C10.6544 16.0129 10.6054 16.1506 10.5316 16.2735C10.5079 16.3136 10.4176 16.3381 10.3627 16.3312C10.1349 16.3019 10.0316 16.4105 9.94245 16.6114C9.55387 17.4862 9.18837 18.3738 8.6711 19.1853C8.31072 19.7503 7.91272 20.2825 7.34071 20.6552C6.78077 21.0198 6.15719 21.0393 5.6924 20.7108C5.5107 20.5821 5.41216 20.4102 5.42784 20.1826C5.44164 19.9855 5.66201 19.812 5.8946 19.8125C6.08723 19.8132 6.23485 19.9469 6.25227 20.132C6.26493 20.2675 6.20756 20.3661 6.10073 20.4412C6.06069 20.4691 6.01825 20.4932 5.96344 20.5273C6.12229 20.6992 6.30248 20.6777 6.47498 20.6244C6.87667 20.5003 7.20387 20.2543 7.40713 19.8936C7.71888 19.3412 8.00183 18.7718 8.27641 18.1997C8.53803 17.6547 8.7734 17.097 9.01971 16.5448C9.04391 16.4905 9.06502 16.4352 9.09397 16.3639C8.9545 16.3639 8.83168 16.3639 8.68708 16.3639C8.75139 16.1925 8.80869 16.0392 8.86795 15.8803C9.23458 15.9276 9.43415 15.7001 9.60318 15.4386C9.83433 15.081 10.122 14.7822 10.4777 14.5496C10.8359 14.3156 11.222 14.196 11.6544 14.2785C11.9172 14.3286 12.063 14.5015 12.0358 14.7367C12.0022 15.034 11.8052 15.2109 11.532 15.189C11.2946 15.1701 11.1865 14.9958 11.2802 14.7739C11.3151 14.6915 11.3651 14.6156 11.4239 14.5089Z" fill="white"/>
<path fill-rule="evenodd" clip-rule="evenodd" d="M14.4169 14.5089C14.21 14.5399 14.068 14.6333 13.9534 14.7622C13.669 15.0812 13.4791 15.4586 13.2906 15.8604C13.4366 15.8604 13.5627 15.8604 13.7159 15.8604C13.6481 16.0129 13.5987 16.1506 13.525 16.2735C13.5012 16.3136 13.411 16.3381 13.3563 16.3312C13.1283 16.3019 13.025 16.4105 12.9358 16.6114C12.547 17.4862 12.1821 18.3738 11.6644 19.1853C11.304 19.7503 10.9063 20.2825 10.334 20.6552C9.77425 21.0198 9.15067 21.0393 8.68595 20.7108C8.50425 20.5821 8.40549 20.4102 8.42117 20.1826C8.43497 19.9855 8.65564 19.812 8.88831 19.8125C9.08071 19.8132 9.22833 19.9469 9.24574 20.132C9.25848 20.2675 9.20119 20.3661 9.09405 20.4412C9.05432 20.4691 9.01143 20.4932 8.95677 20.5273C9.11577 20.6992 9.29603 20.6777 9.46846 20.6244C9.8703 20.5003 10.1971 20.2543 10.4006 19.8936C10.7119 19.3412 10.9953 18.7718 11.2697 18.1997C11.5314 17.6547 11.7667 17.097 12.0134 16.5448C12.0373 16.4905 12.0583 16.4352 12.0873 16.3639C11.948 16.3639 11.8252 16.3639 11.6804 16.3639C11.7445 16.1925 11.8017 16.0392 11.8615 15.8803C12.2278 15.9276 12.4277 15.7001 12.5965 15.4386C12.8276 15.081 13.1155 14.7822 13.4711 14.5496C13.8294 14.3156 14.2156 14.196 14.6479 14.2785C14.9103 14.3286 15.0561 14.5015 15.0292 14.7367C14.9953 15.034 14.7985 15.2109 14.5253 15.189C14.2879 15.1701 14.1798 14.9958 14.2735 14.7739C14.3085 14.6915 14.3587 14.6156 14.4169 14.5089Z" fill="white"/>
<path fill-rule="evenodd" clip-rule="evenodd" d="M7.31837 16.6482C7.39602 16.523 7.4457 16.4226 7.51529 16.339C7.55812 16.2873 7.62944 16.2342 7.69202 16.2292C7.87221 16.2146 8.05443 16.2243 8.25965 16.2243C8.2362 16.2824 8.21894 16.3316 8.19707 16.3787C7.8863 17.0511 7.57327 17.7228 7.26461 18.3963C7.21674 18.5009 7.18364 18.6127 7.15175 18.7237C7.13946 18.767 7.14971 18.8167 7.14971 18.8737C7.42158 18.8392 7.49992 18.5297 7.76153 18.48C7.59853 18.9151 6.94992 19.3812 6.51785 19.3917C6.31836 19.3964 6.18815 19.2837 6.21499 19.0875C6.24168 18.8925 6.31104 18.7033 6.351 18.5526C6.18777 18.7055 6.00028 18.8959 5.79679 19.0672C5.68649 19.1596 5.55591 19.2373 5.42239 19.291C5.02424 19.4518 4.73005 19.2541 4.7014 18.8247C4.67803 18.476 4.77099 18.1516 4.92781 17.8497C5.24205 17.2447 5.66651 16.729 6.24688 16.359C6.3847 16.2712 6.5431 16.201 6.70203 16.1627C7.10184 16.0669 7.28059 16.2059 7.31837 16.6482ZM5.57815 18.4841C5.59202 18.4898 5.60552 18.4951 5.61939 18.5009C5.61585 18.7032 5.71747 18.7668 5.89646 18.6715C5.94471 18.6454 5.99266 18.6145 6.03209 18.5763C6.50624 18.1158 6.85606 17.5752 7.04982 16.9416C7.08639 16.8221 7.08096 16.6831 7.06633 16.557C7.05186 16.4307 6.954 16.3858 6.84324 16.4492C6.74478 16.5053 6.63712 16.5702 6.57409 16.6598C6.34331 16.9885 6.11073 17.3188 5.91583 17.669C5.77342 17.9239 5.68875 18.2113 5.57815 18.4841Z" fill="white"/>
<path fill-rule="evenodd" clip-rule="evenodd" d="M13.4809 19.4125C13.0105 19.427 12.69 19.0925 12.7428 18.5004C12.7522 18.3958 12.7747 18.291 12.8041 18.1901C13.1098 17.1463 14.3066 16.1902 15.392 16.1193C15.9574 16.0825 16.1874 16.4109 15.9365 16.917C15.6387 17.5186 15.1226 17.8354 14.4838 17.9698C14.3073 18.0072 14.1232 18.0079 13.9449 18.0389C13.895 18.0474 13.8304 18.0946 13.8128 18.1398C13.7763 18.2321 13.7578 18.3344 13.7487 18.4338C13.7187 18.7616 13.9079 18.9384 14.2287 18.8682C14.4041 18.8297 14.575 18.7632 14.7411 18.6927C14.8843 18.6317 15.0145 18.5411 15.1565 18.4767C15.1985 18.4576 15.2607 18.4818 15.3135 18.4866C15.3026 18.5382 15.3095 18.6062 15.2788 18.6389C14.8259 19.1185 14.2726 19.3859 13.4809 19.4125ZM13.9676 17.7292C14.0256 17.7292 14.056 17.7333 14.0848 17.7287C14.5659 17.6547 15.0594 17.1698 15.1473 16.6858C15.1525 16.6562 15.1594 16.6263 15.159 16.5961C15.1569 16.4793 15.102 16.4396 14.9942 16.4816C14.9433 16.5016 14.8943 16.5305 14.8505 16.5636C14.4546 16.8636 14.1999 17.2707 13.9676 17.7292Z" fill="white"/>
<path d="M15.8938 8.73083C14.9042 7.87497 14.841 7.08953 15.644 6.11236C15.7583 5.97311 15.8758 5.83575 15.9799 5.68888C16.7194 4.64386 16.4669 3.58655 15.3432 3.01062C15.2503 2.96305 15.1572 2.91563 15.0411 2.85622C15.052 2.91548 15.0504 2.95106 15.0648 2.97828C15.4462 3.69873 15.3601 4.36445 14.8386 4.9838C14.7539 5.08453 14.6774 5.19377 14.6085 5.30604C13.6725 6.82701 14.6036 8.4604 15.8938 8.73083Z" fill="white"/>
<path d="M13.9416 7.44203C13.372 6.82916 13.3558 6.28709 13.8642 5.63373C13.9366 5.54062 14.0108 5.44879 14.0773 5.35025C14.5494 4.64857 14.4272 3.91493 13.7696 3.49144C13.7152 3.45646 13.6608 3.42155 13.5927 3.3779C13.5976 3.41884 13.5957 3.44334 13.6036 3.46242C13.8123 3.96747 13.7424 4.42367 13.4126 4.83743C13.3591 4.90461 13.3103 4.97811 13.2659 5.05358C12.6627 6.0781 13.1756 7.2249 13.9416 7.44203Z" fill="white"/>
<path d="M16.3732 7.99183C16.2084 7.71325 16.1371 7.42774 16.2998 7.13047C16.3739 6.99521 16.4741 6.87368 16.5673 6.74958C16.7651 6.48631 16.8087 6.20954 16.6805 5.93338C16.4838 6.20344 16.2917 6.47651 16.0898 6.74227C15.7028 7.2517 15.7869 7.66304 16.3732 7.99183Z" fill="white"/>
<path d="M26.5658 12.9688C26.6156 12.9247 26.667 12.8792 26.7217 12.8311C27.3188 12.3045 27.3085 12.0473 26.6704 11.5464C25.3955 10.5454 25.3955 10.5454 26.3063 9.19449C26.7288 8.56805 26.6228 8.15671 25.9111 7.94395C24.5483 7.53645 24.1898 7.68904 24.8273 5.76796C24.8401 5.72936 24.8623 5.69385 24.8731 5.65495C25.0175 5.13828 24.8614 4.88126 24.3149 4.81386C23.9733 4.77164 23.6237 4.79803 23.2784 4.77993C22.5611 4.74246 22.3928 4.56386 22.3795 3.84521C22.3764 3.68244 22.3789 3.51952 22.378 3.35667C22.3729 2.27282 22.2112 2.14352 21.1609 2.38274C19.7277 2.70904 19.7277 2.70912 19.1998 1.32566C18.861 0.437378 18.6948 0.382344 17.8977 0.894789C16.6064 1.72502 16.6064 1.72501 15.6247 0.526117C15.0491 -0.176696 14.7929 -0.18054 14.2317 0.54572C13.2316 1.84037 13.2803 1.7888 11.9892 0.904816C11.1684 0.342838 10.9477 0.449442 10.634 1.40377C10.2737 2.50013 10.1355 2.98845 8.86095 2.41132C8.77154 2.37083 8.66011 2.38176 8.56119 2.35907C7.70744 2.16245 7.50682 2.28556 7.51119 3.1384C7.51986 4.81703 7.32475 4.79969 5.81824 4.79479C5.01516 4.79223 4.83022 5.06688 5.04871 5.81923C5.50212 7.38114 5.50212 7.38114 3.96275 7.93385C3.25119 8.18943 3.11367 8.55885 3.54605 9.16916C4.54237 10.5757 4.56212 10.5507 3.1614 11.5664C2.5575 12.0044 2.55705 12.3494 3.1246 12.8176C3.18914 12.8708 3.25685 12.9203 3.325 12.969H0.406544V13.4172H30.1171V12.969L26.5658 12.9688ZM5.27383 12.1838C5.28997 6.88437 9.62355 2.5658 14.9276 2.56361C20.2531 2.5615 24.6162 6.93353 24.5878 12.2643C24.5864 12.5011 24.5755 12.7359 24.557 12.9687H20.9482C22.0333 12.2342 22.5577 11.1779 22.1416 10.5303C21.9096 10.1692 21.413 10.0103 20.7949 10.0925C20.8198 9.93726 20.8392 9.78293 20.8529 9.6317C20.8701 9.44216 20.8079 9.2594 20.678 9.11721C20.5461 8.97291 20.3585 8.89013 20.1631 8.89013H10.1295C9.9341 8.89013 9.74652 8.97291 9.61473 9.11721C9.48475 9.2594 9.42255 9.44216 9.43974 9.6317C9.55441 10.9004 10.0048 12.0453 10.688 12.9687H5.30482C5.28446 12.7098 5.273 12.4482 5.27383 12.1838ZM19.6612 12.8774C20.1069 12.2532 20.4451 11.5348 20.648 10.7793C21.0722 10.6808 21.4064 10.7347 21.5283 10.9245C21.6283 11.0802 21.587 11.3306 21.4151 11.6114C21.2252 11.9216 20.904 12.2315 20.5105 12.4843C20.2309 12.6641 19.9378 12.799 19.6612 12.8774ZM4.46683 11.9883C4.6014 6.19928 9.31422 1.70564 15.0641 1.7603C20.8061 1.81496 25.6138 6.68534 25.3754 12.7074C25.3719 12.7948 25.3663 12.8819 25.3604 12.9688H24.9146C24.9337 12.7219 24.9449 12.4728 24.9455 12.2214C24.9588 6.73269 20.4631 2.22615 14.9768 2.20874C9.43115 2.19117 4.92423 6.66702 4.91805 12.1982C4.91775 12.4576 4.92868 12.7144 4.94791 12.9688H4.49088C4.46788 12.6454 4.45906 12.3185 4.46683 11.9883Z" fill="white"/>
</svg>